<?xml version="1.0" encoding="utf-8"?>
<!-- Generator: Adobe Illustrator 26.1.0, SVG Export Plug-In . SVG Version: 6.00 Build 0)  -->
<svg version="1.1" id="Layer_1" xmlns="http://www.w3.org/2000/svg" xmlns:xlink="http://www.w3.org/1999/xlink" x="0px" y="0px"
	 viewBox="0 0 64 64" style="enable-background:new 0 0 64 64;" xml:space="preserve">
<style type="text/css">
	.st0{fill:#231F20;}
	.st1{fill:#FFFFFF;}
</style>
<path class="st0" d="M51.7,60H12.3C7.7,60,4,56.3,4,51.7V12.3C4,7.7,7.7,4,12.3,4h39.4c4.6,0,8.3,3.7,8.3,8.3v39.4
	C60,56.3,56.3,60,51.7,60z"/>
<path class="st1" d="M50,16H14c-1.1,0-2-0.9-2-2v0c0-1.1,0.9-2,2-2h36c1.1,0,2,0.9,2,2v0C52,15.1,51.1,16,50,16z"/>
<path class="st1" d="M50,28H26c-1.1,0-2-0.9-2-2v0c0-1.1,0.9-2,2-2h24c1.1,0,2,0.9,2,2v0C52,27.1,51.1,28,50,28z"/>
<path class="st1" d="M50,40H14c-1.1,0-2-0.9-2-2v0c0-1.1,0.9-2,2-2h36c1.1,0,2,0.9,2,2v0C52,39.1,51.1,40,50,40z"/>
<path class="st1" d="M38,52H26c-1.1,0-2-0.9-2-2v0c0-1.1,0.9-2,2-2h12c1.1,0,2,0.9,2,2v0C40,51.1,39.1,52,38,52z"/>
</svg>
